<?xml version="1.0" standalone="no"?>
<!DOCTYPE svg PUBLIC "-//W3C//DTD SVG 20010904//EN"
 "http://www.w3.org/TR/2001/REC-SVG-20010904/DTD/svg10.dtd">
<svg version="1.0" xmlns="http://www.w3.org/2000/svg"
 width="116.000000pt" height="162.000000pt" viewBox="0 0 116.000000 162.000000"
 preserveAspectRatio="xMidYMid meet">

<g transform="translate(0.000000,162.000000) scale(0.100000,-0.100000)"
fill="#000000" stroke="none">
<path d="M10 990 c0 -335 2 -610 5 -610 4 0 20 7 36 16 30 15 30 15 19 -5 -6
-12 -20 -21 -30 -21 -11 0 -20 -4 -20 -10 0 -6 9 -6 26 0 33 13 34 13 34 -5 0
-8 6 -15 14 -15 18 0 50 -66 50 -105 1 -24 6 -31 26 -33 14 -2 31 -8 37 -14 9
-7 15 -6 19 6 7 17 39 22 49 7 3 -5 21 -7 40 -4 28 4 36 2 42 -13 6 -17 8 -17
13 4 5 22 6 22 75 -21 l70 -43 -3 -52 c-3 -42 -1 -52 12 -52 9 0 16 8 17 18 0
9 8 35 18 56 17 40 17 40 37 20 29 -27 43 -28 53 -1 11 29 28 42 65 51 17 4
42 16 57 27 36 25 98 25 143 -2 52 -30 44 -8 -13 41 -28 22 -53 50 -56 60 -7
23 -45 27 -45 5 0 -9 -11 -21 -25 -27 -21 -10 -27 -8 -39 7 -14 20 -11 45 5
45 5 0 12 -7 16 -16 4 -12 8 -13 13 -3 11 17 0 41 -15 35 -10 -3 -9 6 3 35 10
25 21 39 33 39 23 0 33 37 26 94 l-6 42 39 -36 c23 -21 40 -46 40 -58 0 -29
16 -28 24 2 l6 23 53 -17 c29 -10 77 -30 106 -45 29 -14 56 -23 59 -20 4 4 8
271 10 595 l3 588 -103 5 c-57 2 -256 5 -443 6 -187 1 -397 4 -467 7 l-128 5
0 -611z m742 204 c17 -5 25 -22 34 -71 3 -14 16 -50 29 -78 14 -29 25 -61 25
-73 0 -19 -6 -20 -65 -20 -36 0 -65 4 -65 9 0 5 18 9 40 9 40 0 53 13 24 24
-45 17 -144 -9 -144 -38 0 -24 -62 -21 -77 4 -18 28 -113 54 -146 39 -14 -6
-28 -20 -30 -31 -7 -25 -40 -20 -45 5 -2 10 6 40 17 67 12 27 21 60 21 74 0
58 24 70 165 81 44 4 82 9 85 12 5 5 102 -5 132 -13z m-282 -234 c11 -7 1 -10
-35 -10 -36 0 -46 3 -35 10 8 5 24 10 35 10 11 0 27 -5 35 -10z m-177 -113 c3
-34 8 -70 13 -81 5 -13 3 -17 -5 -15 -21 7 -52 109 -45 146 10 52 30 24 37
-50z m52 63 c4 -6 10 -8 14 -5 5 2 16 -4 25 -14 35 -38 169 -38 181 0 8 25 45
25 52 0 10 -39 106 -39 169 0 41 25 52 24 59 -4 6 -24 -28 -194 -46 -231 -15
-29 -130 -136 -149 -137 -115 -11 -168 1 -190 42 -7 12 -18 18 -26 15 -19 -7
-52 26 -71 71 -43 103 -58 328 -18 263z m119 -29 c-2 -3 -12 3 -22 13 -16 17
-16 18 5 5 12 -7 20 -15 17 -18z m36 19 c0 -5 -5 -10 -11 -10 -5 0 -7 5 -4 10
3 6 8 10 11 10 2 0 4 -4 4 -10z m137 -12 c-3 -8 -6 -5 -6 6 -1 11 2 17 5 13 3
-3 4 -12 1 -19z m243 -67 c-16 -75 -20 -85 -26 -79 -5 6 13 132 23 158 13 33
15 -25 3 -79z m-145 69 c-3 -5 -12 -10 -18 -10 -7 0 -6 4 3 10 19 12 23 12 15
0z m-296 -407 c9 -7 27 -16 41 -20 14 -3 31 -12 38 -20 8 -8 36 -13 71 -13 48
0 65 5 97 28 21 16 45 36 53 45 47 57 38 -43 -13 -143 -20 -39 -36 -73 -36
-76 0 -2 8 -4 18 -4 15 -1 14 -2 -3 -12 -11 -6 -24 -18 -28 -25 -22 -37 -71
-83 -88 -83 -10 0 -25 10 -34 23 -8 13 -51 43 -95 68 -44 24 -82 52 -86 62 -8
25 -22 22 -84 -21 -62 -42 -110 -66 -110 -53 0 23 48 76 68 75 18 0 22 5 22
30 1 32 29 76 49 76 6 0 11 -14 11 -31 0 -16 -3 -28 -8 -25 -4 2 -13 -7 -19
-20 -10 -22 -9 -25 5 -22 9 2 21 13 27 25 5 12 16 24 25 26 18 4 58 -39 66
-70 4 -13 10 -23 14 -23 23 0 17 27 -25 107 -36 70 -45 98 -45 138 l0 50 27
-40 c15 -22 34 -46 42 -52z m-112 -45 c-3 -7 -5 -2 -5 12 0 14 2 19 5 13 2 -7
2 -19 0 -25z m217 -283 c3 -8 2 -15 -3 -15 -5 0 -14 7 -21 15 -10 12 -10 15 3
15 8 0 17 -7 21 -15z"/>
<path d="M530 750 c0 -15 63 -21 119 -11 3 1 0 6 -6 12 -7 7 -22 8 -47 1 -21
-6 -36 -7 -36 -1 0 5 -7 9 -15 9 -8 0 -15 -4 -15 -10z"/>
<path d="M465 679 c-4 -5 -5 -12 -4 -14 10 -8 234 -9 237 0 1 6 -6 11 -15 11
-149 12 -213 13 -218 3z"/>
<path d="M555 620 c3 -5 17 -10 30 -10 13 0 27 5 30 10 4 6 -8 10 -30 10 -22
0 -34 -4 -30 -10z"/>
<path d="M540 410 c0 -5 7 -10 15 -10 8 0 15 5 15 10 0 6 -7 10 -15 10 -8 0
-15 -4 -15 -10z"/>
<path d="M925 447 c-4 -10 -5 -21 -1 -24 10 -10 18 4 13 24 -4 17 -4 17 -12 0z"/>
</g>
</svg>
